<?xml version="1.0" encoding="UTF-8" standalone="no"?>
<svg
   xmlns:dc="http://purl.org/dc/elements/1.1/"
   xmlns:cc="http://creativecommons.org/ns#"
   xmlns:rdf="http://www.w3.org/1999/02/22-rdf-syntax-ns#"
   xmlns:svg="http://www.w3.org/2000/svg"
   xmlns="http://www.w3.org/2000/svg"
   xmlns:sodipodi="http://sodipodi.sourceforge.net/DTD/sodipodi-0.dtd"
   xmlns:inkscape="http://www.inkscape.org/namespaces/inkscape"
   version="1.0"
   width="256"
   height="256"
   viewBox="0 0 256 256"
   id="svg1"
   sodipodi:docname="arrow-circle-.svg-3.svg"
   inkscape:version="0.92.4 (5da689c313, 2019-01-14)">
  <metadata
     id="metadata2">
    <rdf:RDF>
      <cc:Work
         rdf:about="">
        <dc:format>image/svg+xml</dc:format>
        <dc:type
           rdf:resource="http://purl.org/dc/dcmitype/StillImage" />
        <dc:title></dc:title>
      </cc:Work>
    </rdf:RDF>
  </metadata>
  <defs
     id="defs4" />
  <sodipodi:namedview
     pagecolor="#ffffff"
     bordercolor="#666666"
     borderopacity="1"
     objecttolerance="10"
     gridtolerance="10"
     guidetolerance="10"
     inkscape:pageopacity="0"
     inkscape:pageshadow="2"
     inkscape:window-width="1920"
     inkscape:window-height="1027"
     showgrid="false"
     inkscape:pagecheckerboard="true"
     inkscape:zoom="3.0820312"
     inkscape:cx="156.55259"
     inkscape:cy="140.97845"
     inkscape:window-x="0"
     inkscape:window-y="36"
     inkscape:window-maximized="1"
     inkscape:current-layer="svg1"
     showguides="true"
     id="namedview10">
    <sodipodi:guide
       position="385.121,128"
       orientation="0,1"
       inkscape:locked="false"
       inkscape:label=""
       inkscape:color="rgb(0,0,255)"
       id="guide6" />
    <sodipodi:guide
       position="128,0"
       orientation="1,0"
       inkscape:locked="false"
       inkscape:label=""
       inkscape:color="rgb(0,0,255)"
       id="guide8" />
  </sodipodi:namedview>
  <path
     style="opacity:1;fill:none;fill-opacity:0;stroke:#000000;stroke-width:14.88727283;stroke-linecap:square;stroke-linejoin:miter;stroke-miterlimit:4;stroke-dasharray:none;stroke-opacity:1"
     d="M 53.726551,67.14426 A 105.05999,105.05999 0 0 0 53.726551,215.72095 105.05999,105.05999 0 0 0 202.30325,215.72095 105.05999,105.05999 0 0 0 227.01677,106.56099 L 192.69386,106.56098 A 73.511808,73.511808 0 0 1 179.99528,193.41298 73.511808,73.511808 0 0 1 76.034514,193.41298 73.511808,73.511808 0 0 1 76.034514,89.452223 73.511808,73.511808 0 0 1 154.37454,72.967974 L 154.37582,91.334779 190.00175,55.708857 154.37454,20.08165 V 39.932655 A 105.05999,105.05999 0 0 0 53.726551,67.14426 Z"
     id="path818"
     inkscape:connector-curvature="0" />
</svg>
