<svg xmlns="http://www.w3.org/2000/svg" viewBox="0 0 256 256"><path style="opacity:1;fill-opacity:0;;stroke-opacity:1fill:currentColor;stroke:currentColor;stroke-width:16;stroke-linecap:square;stroke-linejoin:miter;stroke-miterlimit:4;stroke-dasharray:none" d="M 128 15.087891 A 112.91255 112.91255 0 0 0 15.087891 128 A 112.91255 112.91255 0 0 0 128 240.91211 A 112.91255 112.91255 0 0 0 229.73828 176.73633 L 203.6543 150.65234 A 79.00634 79.00634 0 0 1 128 207.00586 A 79.00634 79.00634 0 0 1 48.994141 128 A 79.00634 79.00634 0 0 1 128 48.994141 A 79.00634 79.00634 0 0 1 200.0625 96.001953 L 186.10547 109.96094 L 240.25391 109.96094 L 240.25391 55.810547 L 225.16797 70.896484 A 112.91255 112.91255 0 0 0 128 15.087891 z "/></svg>

