<svg xmlns="http://www.w3.org/2000/svg" viewBox="0 0 256 256"><path style="opacity:1;stroke-opacity:1;fill-opacity:0;fill:currentColor;stroke:currentColor;stroke-width:14.88727283;stroke-linecap:square;stroke-linejoin:miter;stroke-miterlimit:4;stroke-dasharray:none" d="M 53.726551,67.14426 A 105.05999,105.05999 0 0 0 53.726551,215.72095 105.05999,105.05999 0 0 0 202.30325,215.72095 105.05999,105.05999 0 0 0 227.01677,106.56099 L 192.69386,106.56098 A 73.511808,73.511808 0 0 1 179.99528,193.41298 73.511808,73.511808 0 0 1 76.034514,193.41298 73.511808,73.511808 0 0 1 76.034514,89.452223 73.511808,73.511808 0 0 1 154.37454,72.967974 L 154.37582,91.334779 190.00175,55.708857 154.37454,20.08165 V 39.932655 A 105.05999,105.05999 0 0 0 53.726551,67.14426 Z"/></svg>
  

