<svg xmlns="http://www.w3.org/2000/svg" viewBox="0 0 256 256"><path style="opacity:1;fill-opacity:0;;stroke-opacity:1fill:currentColor;stroke:currentColor;stroke-width:16;stroke-linecap:square;stroke-linejoin:miter;stroke-miterlimit:4;stroke-dasharray:none" d="M 128 15 A 113 113 0 0 0 15 128 A 113 113 0 0 0 128 241 A 113 113 0 0 0 230 177 L 204 151 A 79 79 0 0 1 128 207 A 79 79 0 0 1 49 128 A 79 79 0 0 1 128 49 A 79 79 0 0 1 200 96 L 186 110 L 240 110 L 240 56 L 225 71 A 113 113 0 0 0 128 15 z "/></svg>
