<svg xmlns="http://www.w3.org/2000/svg" version="1.0" width="256" height="256" viewBox="0 0 256 256"><path style="color:#000000;font-style:normal;font-variant:normal;font-weight:normal;font-stretch:normal;font-size:medium;line-height:normal;font-family:sans-serif;font-variant-ligatures:normal;font-variant-position:normal;font-variant-caps:normal;font-variant-numeric:normal;font-variant-alternates:normal;font-feature-settings:normal;text-indent:0;text-align:start;text-decoration:none;text-decoration-line:none;text-decoration-style:solid;text-decoration-color:#000000;letter-spacing:normal;word-spacing:normal;text-transform:none;writing-mode:lr-tb;direction:ltr;text-orientation:mixed;dominant-baseline:auto;baseline-shift:baseline;text-anchor:start;white-space:normal;shape-padding:0;clip-rule:nonzero;display:inline;overflow:visible;visibility:visible;opacity:1;isolation:auto;mix-blend-mode:normal;color-interpolation:sRGB;color-interpolation-filters:linearRGB;solid-color:#000000;solid-opacity:1;vector-effect:none;fill:#000003;fill-opacity:1;fill-rule:nonzero;stroke:none;stroke-width:13.45231628;stroke-linecap:square;stroke-linejoin:round;stroke-miterlimit:4;stroke-dasharray:none;stroke-dashoffset:0;stroke-opacity:1;color-rendering:auto;image-rendering:auto;shape-rendering:auto;text-rendering:auto;enable-background:accumulate" d="M121.074.002a6.727 6.727 0 0 0-4.691 2.103L1.836 123.381a6.727 6.727 0 0 0 0 9.238l114.547 121.276a6.727 6.727 0 0 0 11.617-4.62v-73.064h121.484a6.727 6.727 0 0 0 6.727-6.727V86.516a6.727 6.727 0 0 0-6.727-6.727H128V6.725a6.727 6.727 0 0 0-6.926-6.723Zm-6.527 23.64v62.874a6.727 6.727 0 0 0 6.726 6.726h121.485v69.516H121.273a6.727 6.727 0 0 0-6.726 6.726v62.873L15.979 128Z"/></svg>